<?xml version="1.0" encoding="utf-8"?>
<!-- Generator: Adobe Illustrator 14.0.0, SVG Export Plug-In . SVG Version: 6.00 Build 43363)  -->
<!DOCTYPE svg PUBLIC "-//W3C//DTD SVG 1.1//EN" "https://www.w3.org/Graphics/SVG/1.1/DTD/svg11.dtd">
<svg version="1.1" id="Calque_1" xmlns="https://www.w3.org/2000/svg" xmlns:xlink="https://www.w3.org/1999/xlink" x="0px"
     y="0px"
     width="230.16px" height="91.2px" viewBox="0 0 230.16 91.2" style="enable-background:new 0 0 230.16 91.2;"
     xml:space="preserve"
>
<line style="fill:none;stroke:#000000;stroke-width:0.72;stroke-linecap:round;stroke-linejoin:round;stroke-miterlimit:10;"
      x1="36.479" y1="55.2" x2="230.16" y2="55.2"/>
    <line style="fill:none;stroke:#000000;stroke-width:1.44;stroke-linejoin:round;stroke-miterlimit:10;" x1="36.24"
          y1="55.68" x2="36.24" y2="9.12"/>
    <polygon style="fill-rule:evenodd;clip-rule:evenodd;" points="39.6,9.84 36.479,0 33.12,9.84 "/>
    <line style="fill:none;stroke:#000000;stroke-width:1.44;stroke-linejoin:round;stroke-miterlimit:10;" x1="35.76"
          y1="55.2" x2="6" y2="84.959"/>
    <polygon style="fill-rule:evenodd;clip-rule:evenodd;" points="4.56,82.32 0,91.2 8.88,86.64 "/>
    <path style="fill:none;stroke:#000000;stroke-width:0.72;stroke-linecap:round;stroke-linejoin:round;stroke-miterlimit:10;"
          d="
	M63.36,22.08c1.199-1.44,2.64-2.4,4.319-2.4c3.601,0,6.48,4.08,6.72,9.12"/>
    <path style="fill:none;stroke:#000000;stroke-width:0.72;stroke-linecap:round;stroke-linejoin:round;stroke-miterlimit:10;"
          d="
	M75.6,19.68c-0.239,0-0.479,0-0.72,0c-3.6,0-6.48,4.08-6.72,9.12"/>
    <path style="fill:none;stroke:#000000;stroke-width:0.72;stroke-linecap:round;stroke-linejoin:round;stroke-miterlimit:10;"
          d="
	M74.399,28.56c0,0.72,0,1.44,0,2.16c0,4.08-1.439,7.44-3.119,7.44c-1.681,0-3.12-3.36-3.12-7.44c0-0.72,0-1.44,0-1.92"/>
    <path style="fill:none;stroke:#000000;stroke-width:0.72;stroke-linecap:round;stroke-linejoin:round;stroke-miterlimit:10;"
          d="
	M75.6,19.92h0.24c3.6,0,6.48,3.84,6.72,8.88"/>
    <path style="fill:none;stroke:#000000;stroke-width:0.72;stroke-linecap:round;stroke-linejoin:round;stroke-miterlimit:10;"
          d="
	M83.52,19.92c0,0-0.239,0-0.479,0c-3.601,0-6.48,3.84-6.72,9.12"/>
    <path style="fill:none;stroke:#000000;stroke-width:0.72;stroke-linecap:round;stroke-linejoin:round;stroke-miterlimit:10;"
          d="
	M82.56,28.8c0,0.479,0,1.2,0,1.92c0,4.08-1.439,7.68-3.12,7.68c-1.68,0-3.119-3.6-3.119-7.68c0-0.72,0-1.2,0-1.92"/>
    <path style="fill:none;stroke:#000000;stroke-width:0.72;stroke-linecap:round;stroke-linejoin:round;stroke-miterlimit:10;"
          d="
	M83.76,19.92H84c3.6,0,6.479,3.84,6.72,8.88"/>
    <path style="fill:none;stroke:#000000;stroke-width:0.72;stroke-linecap:round;stroke-linejoin:round;stroke-miterlimit:10;"
          d="
	M91.68,19.92c0,0-0.24,0-0.479,0c-3.601,0-6.48,4.08-6.721,9.12"/>
    <path style="fill:none;stroke:#000000;stroke-width:0.72;stroke-linecap:round;stroke-linejoin:round;stroke-miterlimit:10;"
          d="
	M90.72,28.8c0,0.72,0,1.439,0,1.92c0,4.32-1.439,7.68-3.12,7.68c-1.68,0-3.12-3.36-3.12-7.68c0-0.48,0-1.2,0-1.68"/>
    <path style="fill:none;stroke:#000000;stroke-width:0.72;stroke-linecap:round;stroke-linejoin:round;stroke-miterlimit:10;"
          d="
	M91.92,20.16c0-0.24,0.24-0.24,0.24-0.24c3.6,0,6.479,4.08,6.72,9.12"/>
    <path style="fill:none;stroke:#000000;stroke-width:0.72;stroke-linecap:round;stroke-linejoin:round;stroke-miterlimit:10;"
          d="
	M99.84,20.16c0,0-0.24-0.24-0.479-0.24c-3.601,0-6.721,4.08-6.721,9.36"/>
    <path style="fill:none;stroke:#000000;stroke-width:0.72;stroke-linecap:round;stroke-linejoin:round;stroke-miterlimit:10;"
          d="
	M98.88,29.04c0,0.48,0,1.2,0,1.92c0,4.08-1.44,7.68-3.12,7.68s-3.12-3.6-3.12-7.68c0-0.72,0-1.44,0-1.92"/>
    <path style="fill:none;stroke:#000000;stroke-width:0.72;stroke-linecap:round;stroke-linejoin:round;stroke-miterlimit:10;"
          d="
	M100.08,20.16c0,0,0,0,0.24,0c3.6,0,6.479,3.84,6.72,8.88"/>
    <path style="fill:none;stroke:#000000;stroke-width:0.72;stroke-linecap:round;stroke-linejoin:round;stroke-miterlimit:10;"
          d="
	M108,20.16c0,0-0.24,0-0.48,0c-3.6,0-6.72,4.08-6.72,9.12"/>
    <path style="fill:none;stroke:#000000;stroke-width:0.72;stroke-linecap:round;stroke-linejoin:round;stroke-miterlimit:10;"
          d="
	M107.04,29.04c0,0.72,0,1.2,0,1.92c0,4.32-1.44,7.68-3.12,7.68s-3.12-3.36-3.12-7.68c0-0.48,0-1.2,0-1.92"/>
    <path style="fill:none;stroke:#000000;stroke-width:0.72;stroke-linecap:round;stroke-linejoin:round;stroke-miterlimit:10;"
          d="
	M108.24,20.16c0,0,0,0,0.239,0c3.601,0,6.48,4.08,6.721,9.12"/>
    <path style="fill:none;stroke:#000000;stroke-width:0.72;stroke-linecap:round;stroke-linejoin:round;stroke-miterlimit:10;"
          d="
	M116.16,20.16c0,0-0.24,0-0.48,0c-3.6,0-6.72,4.08-6.72,9.36"/>
    <path style="fill:none;stroke:#000000;stroke-width:0.72;stroke-linecap:round;stroke-linejoin:round;stroke-miterlimit:10;"
          d="
	M114.96,29.04c0.24,0.72,0.24,1.44,0.24,2.16c0,4.08-1.44,7.44-3.12,7.44c-1.681,0-3.12-3.36-3.12-7.44c0-0.72,0-1.44,0-1.92"/>
    <path style="fill:none;stroke:#000000;stroke-width:0.72;stroke-linecap:round;stroke-linejoin:round;stroke-miterlimit:10;"
          d="
	M116.16,20.4c0.239,0,0.239,0,0.479,0c3.601,0,6.48,3.84,6.721,8.88"/>
    <path style="fill:none;stroke:#000000;stroke-width:0.72;stroke-linecap:round;stroke-linejoin:round;stroke-miterlimit:10;"
          d="
	M124.32,20.4c-0.24,0-0.24,0-0.48,0c-3.6,0-6.72,4.08-6.72,9.12"/>
    <path style="fill:none;stroke:#000000;stroke-width:0.72;stroke-linecap:round;stroke-linejoin:round;stroke-miterlimit:10;"
          d="
	M123.12,29.28c0.24,0.48,0.24,1.2,0.24,1.92c0,4.32-1.44,7.68-3.12,7.68c-1.681,0-3.12-3.36-3.12-7.68c0-0.72,0-1.2,0-1.92"/>
    <path style="fill:none;stroke:#000000;stroke-width:0.72;stroke-linecap:round;stroke-linejoin:round;stroke-miterlimit:10;"
          d="
	M124.32,20.4c0.239,0,0.239,0,0.479,0c3.36,0,6.48,3.84,6.72,8.88"/>
    <path style="fill:none;stroke:#000000;stroke-width:0.72;stroke-linecap:round;stroke-linejoin:round;stroke-miterlimit:10;"
          d="
	M132.479,20.4c-0.239,0-0.239,0-0.479,0c-3.601,0-6.72,4.08-6.72,9.12"/>
    <path style="fill:none;stroke:#000000;stroke-width:0.72;stroke-linecap:round;stroke-linejoin:round;stroke-miterlimit:10;"
          d="
	M131.28,29.28c0.239,0.72,0.239,1.44,0.239,1.92c0,4.32-1.439,7.68-3.12,7.68c-1.92,0-3.119-3.36-3.119-7.68c0-0.48,0-1.2,0-1.68"/>
    <path style="fill:none;stroke:#000000;stroke-width:0.72;stroke-linecap:round;stroke-linejoin:round;stroke-miterlimit:10;"
          d="
	M132.479,20.64c0.24,0,0.24,0,0.48,0c3.36,0,6.479,3.84,6.72,8.88"/>
    <path style="fill:none;stroke:#000000;stroke-width:0.72;stroke-linecap:round;stroke-linejoin:round;stroke-miterlimit:10;"
          d="
	M140.64,20.64c-0.24,0-0.24,0-0.479,0c-3.601,0-6.721,3.84-6.721,9.12"/>
    <path style="fill:none;stroke:#000000;stroke-width:0.72;stroke-linecap:round;stroke-linejoin:round;stroke-miterlimit:10;"
          d="
	M139.439,29.52c0.24,0.48,0.24,1.2,0.24,1.92c0,4.08-1.439,7.68-3.12,7.68c-1.92,0-3.12-3.6-3.12-7.68c0-0.72,0-1.2,0-1.92"/>
    <path style="fill:none;stroke:#000000;stroke-width:0.72;stroke-linecap:round;stroke-linejoin:round;stroke-miterlimit:10;"
          d="
	M140.64,20.64c0.24,0,0.24,0,0.48,0c3.359,0,6.479,3.84,6.72,8.88"/>
    <path style="fill:none;stroke:#000000;stroke-width:0.72;stroke-linecap:round;stroke-linejoin:round;stroke-miterlimit:10;"
          d="
	M148.8,20.64c-0.24,0-0.24,0-0.479,0c-3.601,0-6.721,4.08-6.721,9.12"/>
    <path style="fill:none;stroke:#000000;stroke-width:0.72;stroke-linecap:round;stroke-linejoin:round;stroke-miterlimit:10;"
          d="
	M147.6,29.52c0.24,0.72,0.24,1.2,0.24,1.92c0,4.32-1.44,7.68-3.12,7.68c-1.92,0-3.359-3.36-3.359-7.68c0-0.48,0.239-1.2,0.239-1.92"
    />
    <path style="fill:none;stroke:#000000;stroke-width:0.72;stroke-linecap:round;stroke-linejoin:round;stroke-miterlimit:10;"
          d="
	M148.8,20.64c0.24,0,0.24,0,0.48,0c3.359,0,6.479,4.08,6.479,9.12"/>
    <path style="fill:none;stroke:#000000;stroke-width:0.72;stroke-linecap:round;stroke-linejoin:round;stroke-miterlimit:10;"
          d="
	M156.96,20.88c-0.24-0.24-0.24-0.24-0.48-0.24c-3.6,0-6.72,4.08-6.96,9.36"/>
    <path style="fill:none;stroke:#000000;stroke-width:0.72;stroke-linecap:round;stroke-linejoin:round;stroke-miterlimit:10;"
          d="
	M155.76,29.52c0.24,0.72,0.24,1.44,0.24,2.16c0,4.08-1.44,7.44-3.12,7.44c-1.92,0-3.36-3.36-3.36-7.44c0-0.72,0.24-1.44,0.24-1.92"
    />
    <path style="fill:none;stroke:#000000;stroke-width:0.72;stroke-linecap:round;stroke-linejoin:round;stroke-miterlimit:10;"
          d="
	M156.96,20.88c0.24,0,0.24,0,0.479,0c3.36,0,6.24,3.84,6.48,8.88"/>
    <path style="fill:none;stroke:#000000;stroke-width:0.72;stroke-linecap:round;stroke-linejoin:round;stroke-miterlimit:10;"
          d="
	M165.12,20.88c-0.24,0-0.24,0-0.48,0c-3.6,0-6.72,4.08-6.96,9.12"/>
    <path style="fill:none;stroke:#000000;stroke-width:0.72;stroke-linecap:round;stroke-linejoin:round;stroke-miterlimit:10;"
          d="
	M163.92,29.76c0.24,0.72,0.24,1.2,0.24,1.92c0,4.32-1.44,7.68-3.12,7.68c-1.92,0-3.36-3.36-3.36-7.68c0-0.72,0.24-1.2,0.24-1.92"/>
    <path style="fill:none;stroke:#000000;stroke-width:0.72;stroke-linecap:round;stroke-linejoin:round;stroke-miterlimit:10;"
          d="
	M165.12,20.88c0.24,0,0.24,0,0.479,0c3.36,0,6.24,4.08,6.48,8.88"/>
    <path style="fill:none;stroke:#000000;stroke-width:0.72;stroke-linecap:round;stroke-linejoin:round;stroke-miterlimit:10;"
          d="
	M173.28,20.88c-0.24,0-0.48,0-0.48,0c-3.6,0-6.72,4.08-6.96,9.12"/>
    <path style="fill:none;stroke:#000000;stroke-width:0.72;stroke-linecap:round;stroke-linejoin:round;stroke-miterlimit:10;"
          d="
	M172.08,29.76c0,0.72,0.24,1.44,0.24,2.16c0,4.08-1.44,7.44-3.36,7.44c-1.68,0-3.12-3.36-3.12-7.44c0-0.72,0.24-1.44,0.24-1.92"/>
    <path style="fill:none;stroke:#000000;stroke-width:0.72;stroke-linecap:round;stroke-linejoin:round;stroke-miterlimit:10;"
          d="
	M173.28,21.12c0.239,0,0.239,0,0.479,0c3.36,0,6.24,3.84,6.48,8.88"/>
    <path style="fill:none;stroke:#000000;stroke-width:0.72;stroke-linecap:round;stroke-linejoin:round;stroke-miterlimit:10;"
          d="
	M181.439,21.12c-0.239,0-0.479,0-0.479,0c-3.6,0-6.72,3.84-6.96,9.12"/>
    <path style="fill:none;stroke:#000000;stroke-width:0.72;stroke-linecap:round;stroke-linejoin:round;stroke-miterlimit:10;"
          d="
	M180.24,30c0,0.48,0.239,1.2,0.239,1.92c0,4.08-1.439,7.68-3.359,7.68c-1.681,0-3.12-3.6-3.12-7.68c0-0.72,0-1.2,0.24-1.92"/>
    <path style="fill:none;stroke:#000000;stroke-width:0.72;stroke-linecap:round;stroke-linejoin:round;stroke-miterlimit:10;"
          d="
	M181.439,21.12c0.24,0,0.24,0,0.24,0c3.601,0,6.48,3.84,6.72,8.88"/>
    <path style="fill:none;stroke:#000000;stroke-width:0.72;stroke-linecap:round;stroke-linejoin:round;stroke-miterlimit:10;"
          d="
	M189.6,21.12c-0.239,0-0.479,0-0.479,0c-3.601,0-6.721,4.08-6.96,9.12"/>
    <path style="fill:none;stroke:#000000;stroke-width:0.72;stroke-linecap:round;stroke-linejoin:round;stroke-miterlimit:10;"
          d="
	M188.399,30c0,0.72,0.24,1.44,0.24,1.92c0,4.32-1.439,7.68-3.359,7.68c-1.681,0-3.12-3.36-3.12-7.68c0-0.48,0-1.2,0.239-1.68"/>
    <path style="fill:none;stroke:#000000;stroke-width:0.72;stroke-linecap:round;stroke-linejoin:round;stroke-miterlimit:10;"
          d="
	M189.6,21.36c0.24-0.24,0.24-0.24,0.24-0.24c3.6,0,6.48,4.08,6.72,9.12"/>
    <path style="fill:none;stroke:#000000;stroke-width:0.72;stroke-linecap:round;stroke-linejoin:round;stroke-miterlimit:10;"
          d="
	M197.76,21.36c-0.24,0-0.479-0.24-0.479-0.24c-3.841,0-6.721,4.08-6.96,9.36"/>
    <path style="fill:none;stroke:#000000;stroke-width:0.72;stroke-linecap:round;stroke-linejoin:round;stroke-miterlimit:10;"
          d="
	M196.56,30.24c0,0.48,0,1.2,0,1.92c0,4.08-1.199,7.68-3.12,7.68c-1.68,0-3.119-3.6-3.119-7.68c0-0.72,0-1.44,0.239-1.92"/>
    <path style="fill:none;stroke:#000000;stroke-width:0.72;stroke-linecap:round;stroke-linejoin:round;stroke-miterlimit:10;"
          d="
	M197.76,21.36c0.24,0,0.24,0,0.24,0c3.6,0,6.479,3.84,6.72,8.88"/>
    <path style="fill:none;stroke:#000000;stroke-width:0.72;stroke-linecap:round;stroke-linejoin:round;stroke-miterlimit:10;"
          d="
	M211.2,26.16c-1.2-2.88-3.36-4.8-5.761-4.8c-3.84,0-6.72,4.08-6.96,9.12"/>
    <path style="fill:none;stroke:#000000;stroke-width:0.72;stroke-linecap:round;stroke-linejoin:round;stroke-miterlimit:10;"
          d="
	M204.72,30.24c0,0.72,0,1.2,0,1.92c0,4.32-1.2,7.68-3.12,7.68c-1.68,0-3.12-3.36-3.12-7.68c0-0.48,0-1.2,0.24-1.92"/>
    <line style="fill:none;stroke:#000000;stroke-width:0.72;stroke-linecap:round;stroke-linejoin:round;stroke-miterlimit:10;"
          x1="211.68" y1="28.56" x2="211.68" y2="28.56"/>
    <polygon style="fill-rule:evenodd;clip-rule:evenodd;" points="207.6,24.72 211.68,28.8 212.399,23.04 "/>
    <path style="fill:none;stroke:#000000;stroke-width:0.72;stroke-linecap:round;stroke-linejoin:round;stroke-miterlimit:10;"
          d="
	M56.16,80.4c1.2,1.2,2.64,1.92,4.319,1.92c3.601,0,6.48-3.12,6.721-6.96"/>
    <path style="fill:none;stroke:#000000;stroke-width:0.72;stroke-linecap:round;stroke-linejoin:round;stroke-miterlimit:10;"
          d="
	M68.399,82.32c-0.239,0-0.479,0-0.72,0c-3.6,0-6.479-3.12-6.72-7.2"/>
    <path style="fill:none;stroke:#000000;stroke-width:0.72;stroke-linecap:round;stroke-linejoin:round;stroke-miterlimit:10;"
          d="
	M67.2,75.36c0-0.48,0-0.96,0-1.439c0-3.36-1.44-6.24-3.12-6.24c-1.681,0-3.12,2.88-3.12,6.24c0,0.479,0,0.959,0,1.439"/>
    <path style="fill:none;stroke:#000000;stroke-width:0.72;stroke-linecap:round;stroke-linejoin:round;stroke-miterlimit:10;"
          d="
	M68.399,82.32h0.24c3.601,0,6.48-3.12,6.721-6.96"/>
    <path style="fill:none;stroke:#000000;stroke-width:0.72;stroke-linecap:round;stroke-linejoin:round;stroke-miterlimit:10;"
          d="
	M76.32,82.32c0,0-0.24,0-0.48,0c-3.6,0-6.479-3.12-6.72-7.2"/>
    <path style="fill:none;stroke:#000000;stroke-width:0.72;stroke-linecap:round;stroke-linejoin:round;stroke-miterlimit:10;"
          d="
	M75.36,75.36c0-0.48,0-0.96,0-1.68c0-3.36-1.44-6-3.12-6c-1.681,0-3.12,2.64-3.12,6c0,0.48,0,1.199,0,1.68"/>
    <path style="fill:none;stroke:#000000;stroke-width:0.72;stroke-linecap:round;stroke-linejoin:round;stroke-miterlimit:10;"
          d="
	M76.56,82.32h0.24c3.6,0,6.48-3.12,6.72-7.2"/>
    <path style="fill:none;stroke:#000000;stroke-width:0.72;stroke-linecap:round;stroke-linejoin:round;stroke-miterlimit:10;"
          d="
	M84.479,82.32c0,0-0.239,0-0.479,0c-3.601,0-6.48-3.36-6.72-7.2"/>
    <path style="fill:none;stroke:#000000;stroke-width:0.72;stroke-linecap:round;stroke-linejoin:round;stroke-miterlimit:10;"
          d="
	M83.52,75.12c0-0.479,0-0.959,0-1.439c0-3.36-1.439-6-3.12-6c-1.68,0-3.119,2.64-3.119,6c0,0.48,0,0.96,0,1.439"/>
    <path style="fill:none;stroke:#000000;stroke-width:0.72;stroke-linecap:round;stroke-linejoin:round;stroke-miterlimit:10;"
          d="
	M84.72,82.081h0.24c3.6,0,6.479-2.881,6.72-6.961"/>
    <path style="fill:none;stroke:#000000;stroke-width:0.72;stroke-linecap:round;stroke-linejoin:round;stroke-miterlimit:10;"
          d="
	M92.64,82.081c0,0-0.24,0-0.479,0c-3.601,0-6.721-3.121-6.721-7.201"/>
    <path style="fill:none;stroke:#000000;stroke-width:0.72;stroke-linecap:round;stroke-linejoin:round;stroke-miterlimit:10;"
          d="
	M91.68,75.12c0-0.479,0-0.959,0-1.439c0-3.36-1.439-6-3.12-6c-1.68,0-3.12,2.64-3.12,6c0,0.48,0,0.96,0,1.439"/>
    <path style="fill:none;stroke:#000000;stroke-width:0.72;stroke-linecap:round;stroke-linejoin:round;stroke-miterlimit:10;"
          d="
	M92.88,82.081c0,0,0,0,0.24,0c3.6,0,6.479-3.121,6.72-6.961"/>
    <path style="fill:none;stroke:#000000;stroke-width:0.72;stroke-linecap:round;stroke-linejoin:round;stroke-miterlimit:10;"
          d="
	M100.8,82.081c0,0-0.24,0-0.479,0c-3.601,0-6.721-3.121-6.721-7.201"/>
    <path style="fill:none;stroke:#000000;stroke-width:0.72;stroke-linecap:round;stroke-linejoin:round;stroke-miterlimit:10;"
          d="
	M99.84,75.12c0-0.479,0-0.959,0-1.68c0-3.359-1.44-6-3.12-6s-3.12,2.641-3.12,6c0,0.48,0,1.2,0,1.68"/>
    <path style="fill:none;stroke:#000000;stroke-width:0.72;stroke-linecap:round;stroke-linejoin:round;stroke-miterlimit:10;"
          d="
	M101.04,82.081c0,0,0,0,0.24,0c3.6,0,6.479-3.121,6.72-7.201"/>
    <path style="fill:none;stroke:#000000;stroke-width:0.72;stroke-linecap:round;stroke-linejoin:round;stroke-miterlimit:10;"
          d="
	M108.96,82.081c0,0-0.24,0-0.48,0c-3.6,0-6.72-3.36-6.72-7.44"/>
    <path style="fill:none;stroke:#000000;stroke-width:0.72;stroke-linecap:round;stroke-linejoin:round;stroke-miterlimit:10;"
          d="
	M107.76,74.879C108,74.4,108,73.92,108,73.44c0-3.359-1.44-6-3.12-6s-3.12,2.641-3.12,6c0,0.48,0,0.96,0,1.439"/>
    <path style="fill:none;stroke:#000000;stroke-width:0.72;stroke-linecap:round;stroke-linejoin:round;stroke-miterlimit:10;"
          d="
	M108.96,82.081c0.24,0,0.24,0,0.479,0c3.601,0,6.48-3.121,6.721-7.201"/>
    <path style="fill:none;stroke:#000000;stroke-width:0.72;stroke-linecap:round;stroke-linejoin:round;stroke-miterlimit:10;"
          d="
	M117.12,81.84c-0.24,0.24-0.24,0.24-0.48,0.24c-3.6,0-6.72-3.36-6.72-7.44"/>
    <path style="fill:none;stroke:#000000;stroke-width:0.72;stroke-linecap:round;stroke-linejoin:round;stroke-miterlimit:10;"
          d="
	M115.92,74.879c0.24-0.479,0.24-0.959,0.24-1.439c0-3.359-1.44-6-3.12-6s-3.12,2.641-3.12,6c0,0.48,0,0.96,0,1.439"/>
    <path style="fill:none;stroke:#000000;stroke-width:0.72;stroke-linecap:round;stroke-linejoin:round;stroke-miterlimit:10;"
          d="
	M117.12,81.84c0.24,0,0.24,0,0.479,0c3.36,0,6.48-3.12,6.721-6.961"/>
    <path style="fill:none;stroke:#000000;stroke-width:0.72;stroke-linecap:round;stroke-linejoin:round;stroke-miterlimit:10;"
          d="
	M125.28,81.84c-0.24,0-0.24,0-0.48,0c-3.6,0-6.72-3.12-6.72-7.2"/>
    <path style="fill:none;stroke:#000000;stroke-width:0.72;stroke-linecap:round;stroke-linejoin:round;stroke-miterlimit:10;"
          d="
	M124.08,74.879c0.24-0.479,0.24-1.199,0.24-1.68c0-3.359-1.44-6-3.12-6c-1.92,0-3.12,2.641-3.12,6c0,0.48,0,0.961,0,1.44"/>
    <path style="fill:none;stroke:#000000;stroke-width:0.72;stroke-linecap:round;stroke-linejoin:round;stroke-miterlimit:10;"
          d="
	M125.28,81.84c0.239,0,0.239,0,0.479,0c3.36,0,6.48-3.12,6.72-7.2"/>
    <path style="fill:none;stroke:#000000;stroke-width:0.72;stroke-linecap:round;stroke-linejoin:round;stroke-miterlimit:10;"
          d="
	M133.439,81.84c-0.239,0-0.239,0-0.479,0c-3.6,0-6.72-3.36-6.72-7.2"/>
    <path style="fill:none;stroke:#000000;stroke-width:0.72;stroke-linecap:round;stroke-linejoin:round;stroke-miterlimit:10;"
          d="
	M132.24,74.879c0.239-0.719,0.239-1.199,0.239-1.68c0-3.359-1.439-6-3.119-6c-1.921,0-3.12,2.641-3.12,6c0,0.48,0,0.961,0,1.44"/>
    <path style="fill:none;stroke:#000000;stroke-width:0.72;stroke-linecap:round;stroke-linejoin:round;stroke-miterlimit:10;"
          d="
	M133.439,81.84c0.24,0,0.24,0,0.48,0c3.36,0,6.479-3.12,6.72-7.2"/>
    <path style="fill:none;stroke:#000000;stroke-width:0.72;stroke-linecap:round;stroke-linejoin:round;stroke-miterlimit:10;"
          d="
	M141.6,81.6c-0.239,0.24-0.239,0.24-0.479,0.24c-3.601,0-6.721-3.36-6.721-7.44"/>
    <path style="fill:none;stroke:#000000;stroke-width:0.72;stroke-linecap:round;stroke-linejoin:round;stroke-miterlimit:10;"
          d="
	M140.399,74.64c0.24-0.479,0.24-0.96,0.24-1.44c0-3.359-1.439-6.24-3.12-6.24c-1.92,0-3.359,2.881-3.359,6.24
	c0,0.48,0.239,0.961,0.239,1.44"/>
    <path style="fill:none;stroke:#000000;stroke-width:0.72;stroke-linecap:round;stroke-linejoin:round;stroke-miterlimit:10;"
          d="
	M141.6,81.6c0.24,0,0.24,0,0.48,0c3.359,0,6.479-3.12,6.479-6.96"/>
    <path style="fill:none;stroke:#000000;stroke-width:0.72;stroke-linecap:round;stroke-linejoin:round;stroke-miterlimit:10;"
          d="
	M149.76,81.6c-0.24,0-0.24,0-0.479,0c-3.601,0-6.721-3.12-6.96-7.2"/>
    <path style="fill:none;stroke:#000000;stroke-width:0.72;stroke-linecap:round;stroke-linejoin:round;stroke-miterlimit:10;"
          d="
	M148.56,74.64c0.24-0.479,0.24-1.2,0.24-1.681c0-3.359-1.439-6-3.12-6c-1.92,0-3.359,2.641-3.359,6c0,0.48,0.239,0.961,0.239,1.44"
    />
    <path style="fill:none;stroke:#000000;stroke-width:0.72;stroke-linecap:round;stroke-linejoin:round;stroke-miterlimit:10;"
          d="
	M149.76,81.6c0.24,0,0.24,0,0.48,0c3.359,0,6.239-3.12,6.479-7.2"/>
    <path style="fill:none;stroke:#000000;stroke-width:0.72;stroke-linecap:round;stroke-linejoin:round;stroke-miterlimit:10;"
          d="
	M157.92,81.6c-0.24,0-0.24,0-0.48,0c-3.6,0-6.72-3.12-6.96-7.2"/>
    <path style="fill:none;stroke:#000000;stroke-width:0.72;stroke-linecap:round;stroke-linejoin:round;stroke-miterlimit:10;"
          d="
	M156.72,74.64c0.24-0.72,0.24-1.2,0.24-1.681c0-3.359-1.44-6-3.12-6c-1.92,0-3.36,2.641-3.36,6c0,0.48,0.24,0.961,0.24,1.44"/>
    <path style="fill:none;stroke:#000000;stroke-width:0.72;stroke-linecap:round;stroke-linejoin:round;stroke-miterlimit:10;"
          d="
	M157.92,81.36c0.24,0,0.24,0.24,0.479,0c3.36,0,6.24-2.88,6.48-6.96"/>
    <path style="fill:none;stroke:#000000;stroke-width:0.72;stroke-linecap:round;stroke-linejoin:round;stroke-miterlimit:10;"
          d="
	M166.08,81.36c-0.24,0-0.48,0.24-0.48,0c-3.6,0-6.72-3.12-6.96-7.199"/>
    <path style="fill:none;stroke:#000000;stroke-width:0.72;stroke-linecap:round;stroke-linejoin:round;stroke-miterlimit:10;"
          d="
	M164.88,74.4c0-0.479,0.24-0.96,0.24-1.44c0-3.359-1.44-6.239-3.36-6.239c-1.68,0-3.12,2.88-3.12,6.239c0,0.48,0.24,0.961,0.24,1.44
	"/>
    <path style="fill:none;stroke:#000000;stroke-width:0.72;stroke-linecap:round;stroke-linejoin:round;stroke-miterlimit:10;"
          d="
	M166.08,81.36c0.24,0,0.24,0,0.479,0c3.36,0,6.24-3.12,6.48-6.96"/>
    <path style="fill:none;stroke:#000000;stroke-width:0.72;stroke-linecap:round;stroke-linejoin:round;stroke-miterlimit:10;"
          d="
	M174.24,81.36c-0.24,0-0.48,0-0.48,0c-3.6,0-6.72-3.12-6.96-7.199"/>
    <path style="fill:none;stroke:#000000;stroke-width:0.72;stroke-linecap:round;stroke-linejoin:round;stroke-miterlimit:10;"
          d="
	M173.04,74.4c0-0.479,0.24-0.96,0.24-1.68c0-3.12-1.44-6-3.36-6c-1.68,0-3.12,2.88-3.12,6c0,0.479,0,1.2,0.24,1.68"/>
    <path style="fill:none;stroke:#000000;stroke-width:0.72;stroke-linecap:round;stroke-linejoin:round;stroke-miterlimit:10;"
          d="
	M174.24,81.36c0.239,0,0.239,0,0.239,0c3.601,0,6.48-3.12,6.721-7.199"/>
    <path style="fill:none;stroke:#000000;stroke-width:0.72;stroke-linecap:round;stroke-linejoin:round;stroke-miterlimit:10;"
          d="
	M182.399,81.36c-0.239,0-0.479,0-0.479,0c-3.6,0-6.72-3.12-6.96-7.199"/>
    <path style="fill:none;stroke:#000000;stroke-width:0.72;stroke-linecap:round;stroke-linejoin:round;stroke-miterlimit:10;"
          d="
	M181.2,74.4c0-0.72,0.239-1.2,0.239-1.68c0-3.36-1.439-6-3.359-6c-1.681,0-3.12,2.64-3.12,6c0,0.479,0,0.96,0.24,1.44"/>
    <path style="fill:none;stroke:#000000;stroke-width:0.72;stroke-linecap:round;stroke-linejoin:round;stroke-miterlimit:10;"
          d="
	M182.399,81.12c0.24,0,0.24,0,0.24,0c3.601,0,6.48-2.88,6.721-6.959"/>
    <path style="fill:none;stroke:#000000;stroke-width:0.72;stroke-linecap:round;stroke-linejoin:round;stroke-miterlimit:10;"
          d="
	M190.56,81.12c-0.239,0-0.479,0-0.479,0c-3.84,0-6.72-3.119-6.96-7.199"/>
    <path style="fill:none;stroke:#000000;stroke-width:0.72;stroke-linecap:round;stroke-linejoin:round;stroke-miterlimit:10;"
          d="
	M189.36,74.161c0-0.48,0-0.961,0-1.44c0-3.36-1.2-6-3.12-6c-1.681,0-3.12,2.64-3.12,6c0,0.479,0,0.96,0.24,1.44"/>
    <path style="fill:none;stroke:#000000;stroke-width:0.72;stroke-linecap:round;stroke-linejoin:round;stroke-miterlimit:10;"
          d="
	M190.56,81.12c0.24,0,0.24,0,0.24,0c3.6,0,6.48-3.119,6.72-6.959"/>
    <path style="fill:none;stroke:#000000;stroke-width:0.72;stroke-linecap:round;stroke-linejoin:round;stroke-miterlimit:10;"
          d="
	M204,77.28c-1.2,2.4-3.36,3.84-5.76,3.84c-3.841,0-6.721-3.119-6.96-7.199"/>
    <path style="fill:none;stroke:#000000;stroke-width:0.72;stroke-linecap:round;stroke-linejoin:round;stroke-miterlimit:10;"
          d="
	M197.52,74.161c0-0.48,0-0.961,0-1.681c0-3.36-1.199-6-3.12-6c-1.68,0-3.119,2.64-3.119,6c0,0.479,0,1.2,0.239,1.681"/>
    <line style="fill:none;stroke:#000000;stroke-width:0.72;stroke-linecap:round;stroke-linejoin:round;stroke-miterlimit:10;"
          x1="204.479" y1="75.36" x2="204.479" y2="75.36"/>
    <polygon style="fill-rule:evenodd;clip-rule:evenodd;" points="204.96,81.12 204.479,75.36 200.16,79.2 "/>
    <text transform="matrix(1 0 0 1 54.96 32.6401)" style="font-family:'TimesNewRomanPSMT'; font-size:12;">+</text>
    <g>
	<defs>
		<rect id="SVGID_1_" x="61.68" y="21.84" width="2.641" height="13.92"/>
	</defs>
        <clipPath id="SVGID_2_">
		<use xlink:href="#SVGID_1_" style="overflow:visible;"/>
	</clipPath>
</g>
    <text transform="matrix(1 0 0 1 48.96 80.6401)" style="font-family:'TimesNewRomanPSMT'; font-size:12;">-</text>
    <g>
	<defs>
		<rect id="SVGID_3_" x="53.04" y="69.84" width="5.28" height="13.92"/>
	</defs>
        <clipPath id="SVGID_4_">
		<use xlink:href="#SVGID_3_" style="overflow:visible;"/>
	</clipPath>
</g>
    <text transform="matrix(1 0 0 1 25.6797 32.8799)"
          style="font-family:'TimesNewRomanPS-BoldMT'; font-size:12;">E</text>
    <g>
	<defs>
		<rect id="SVGID_5_" x="33.6" y="21.84" width="0.721" height="13.92"/>
	</defs>
        <clipPath id="SVGID_6_">
		<use xlink:href="#SVGID_5_" style="overflow:visible;"/>
	</clipPath>
</g>
    <g>
	<defs>
		<rect id="SVGID_7_" x="10.8" y="56.64" width="8.4" height="13.92"/>
	</defs>
        <clipPath id="SVGID_8_">
		<use xlink:href="#SVGID_7_" style="overflow:visible;"/>
	</clipPath>
        <g style="clip-path:url(#SVGID_8_);">
		<text transform="matrix(1 0 0 1 10.7998 67.6802)"
              style="font-family:'TimesNewRomanPS-BoldMT'; font-size:12;">H</text>
	</g>
</g>
</svg>
