<?xml version="1.0" encoding="utf-8"?>
<!-- Generator: Adobe Illustrator 14.0.0, SVG Export Plug-In . SVG Version: 6.00 Build 43363)  -->
<!DOCTYPE svg PUBLIC "-//W3C//DTD SVG 1.1//EN" "https://www.w3.org/Graphics/SVG/1.1/DTD/svg11.dtd">
<svg version="1.1" id="Calque_1" xmlns="https://www.w3.org/2000/svg" xmlns:xlink="https://www.w3.org/1999/xlink" x="0px"
     y="0px"
     width="235.08px" height="134.64px" viewBox="0 0 235.08 134.64" style="enable-background:new 0 0 235.08 134.64;"
     xml:space="preserve">
<path style="fill-rule:evenodd;clip-rule:evenodd;fill:#FFFFFF;" d="M184.92,71.279c0-22.08-39.6-40.08-88.08-40.08
	c-48.48,0-87.84,18-87.84,40.08C9,93.6,48.36,111.6,96.84,111.6C145.32,111.6,184.92,93.6,184.92,71.279z"/>
    <path style="fill:none;stroke:#000000;stroke-width:0.72;stroke-linecap:round;stroke-miterlimit:10;" d="M184.92,71.279
	c0-22.08-39.6-40.08-88.08-40.08c-48.48,0-87.84,18-87.84,40.08C9,93.6,48.36,111.6,96.84,111.6
	C145.32,111.6,184.92,93.6,184.92,71.279z"/>
    <path style="fill:none;stroke:#000000;stroke-width:0.72;stroke-linecap:round;stroke-linejoin:round;stroke-miterlimit:10;"
          d="
	M97.08,87.6c48.24,0,87.12-9.12,87.12-20.4"/>
    <path style="fill:none;stroke:#000000;stroke-width:0.72;stroke-linecap:round;stroke-linejoin:round;stroke-miterlimit:10;"
          d="
	M97.8,91.92c48,0,86.88-9.12,86.88-20.4"/>
    <path style="fill:none;stroke:#000000;stroke-width:0.72;stroke-linecap:round;stroke-linejoin:round;stroke-miterlimit:10;"
          d="
	M97.8,87.6c-48.72,0-88.08-9.12-88.08-20.4"/>
    <path style="fill:none;stroke:#000000;stroke-width:0.72;stroke-linecap:round;stroke-linejoin:round;stroke-miterlimit:10;"
          d="
	M97.08,91.92C48.36,91.92,9,82.8,9,71.52"/>
    <path style="fill:none;stroke:#0000FF;stroke-width:0.72;stroke-linecap:round;stroke-linejoin:round;stroke-miterlimit:10;"
          d="
	M100.68,30c2.88-1.44,5.521-2.16,8.4-2.16c16.32,0,29.76,24.24,29.76,54"/>
    <path style="fill:none;stroke:#0000FF;stroke-width:0.72;stroke-linecap:round;stroke-linejoin:round;stroke-miterlimit:10;"
          d="
	M136.44,33.359c1.199-0.479,2.399-0.479,3.6-0.479c14.64,0,26.4,20.399,26.4,45.6"/>
    <path style="fill:none;stroke:#0000FF;stroke-width:0.72;stroke-linecap:round;stroke-linejoin:round;stroke-miterlimit:10;"
          d="
	M21.48,48.239C24.6,43.92,28.2,41.76,31.8,41.76c10.8,0,19.44,18.96,19.44,42"/>
    <path style="fill:none;stroke:#0000FF;stroke-width:0.72;stroke-linecap:round;stroke-linejoin:round;stroke-miterlimit:10;"
          d="
	M42.84,36.239C46.2,34.08,49.8,32.88,53.4,32.88c16.319,0,29.52,23.279,29.52,52.08"/>
    <path style="fill:none;stroke:#0000FF;stroke-width:0.72;stroke-linecap:round;stroke-linejoin:round;stroke-miterlimit:10;"
          d="
	M73.8,30.239c2.641-1.439,5.521-2.399,8.16-2.399c16.56,0,29.76,25.439,29.76,56.399"/>
    <path style="fill:none;stroke:#0000FF;stroke-width:0.72;stroke-linecap:round;stroke-linejoin:round;stroke-miterlimit:10;"
          d="
	M111.24,113.04c2.399,1.439,5.04,1.92,7.68,1.92c10.561,0,19.2-10.08,19.2-22.32"/>
    <path style="fill:none;stroke:#0000FF;stroke-width:0.72;stroke-linecap:round;stroke-linejoin:round;stroke-miterlimit:10;"
          d="
	M140.28,108.72c1.439,0.24,3.12,0.479,4.56,0.479c12,0,21.601-10.56,21.601-23.279"/>
    <path style="fill:none;stroke:#0000FF;stroke-width:0.72;stroke-linecap:round;stroke-linejoin:round;stroke-miterlimit:10;"
          d="
	M21.48,94.319c1.92,5.04,7.44,8.4,13.92,8.16c8.16,0,14.64-5.28,14.64-11.76"/>
    <path style="fill:none;stroke:#0000FF;stroke-width:0.72;stroke-linecap:round;stroke-linejoin:round;stroke-miterlimit:10;"
          d="
	M51.24,108.479c3.359,2.16,7.439,3.36,11.52,3.36c11.04,0,20.16-8.88,20.16-19.681"/>
    <path style="fill:none;stroke:#0000FF;stroke-width:0.72;stroke-linecap:round;stroke-linejoin:round;stroke-miterlimit:10;"
          d="
	M77.16,113.76c2.88,1.2,6,1.92,9.12,1.92c13.2,0,23.76-10.56,23.76-23.521"/>
    <path style="fill:none;stroke:#FF0000;stroke-width:0.72;stroke-linecap:round;stroke-linejoin:round;stroke-miterlimit:10;"
          d="
	M158.28,9.84C150.6,21.12,145.8,42,145.8,64.56c0,1.44,0,2.88,0,4.32"/>
    <path style="fill:none;stroke:#FF0000;stroke-width:0.72;stroke-linecap:round;stroke-linejoin:round;stroke-miterlimit:10;"
          d="
	M177.48,24c-6.961,7.68-10.561,17.52-10.561,27.6c0,0.96,0,1.92,0,2.88"/>
    <path style="fill:none;stroke:#FF0000;stroke-width:0.72;stroke-linecap:round;stroke-linejoin:round;stroke-miterlimit:10;"
          d="
	M130.2,2.159C125.64,15.6,123,41.04,123,68.399c0,1.92,0,3.601,0,5.28"/>
    <path style="fill:none;stroke:#FF0000;stroke-width:0.72;stroke-linecap:round;stroke-linejoin:round;stroke-miterlimit:10;"
          d="
	M185.4,44.64c-6.96,4.8-11.28,13.44-11.28,23.04c0,0.72,0,1.2,0,1.92"/>
    <path style="fill:none;stroke:#FF0000;stroke-width:0.72;stroke-linecap:round;stroke-linejoin:round;stroke-miterlimit:10;"
          d="
	M89.4,0C94.68,12,97.8,34.319,97.8,58.8c0,1.439,0,3.12,0,4.8"/>
    <path style="fill:none;stroke:#FF0000;stroke-width:0.72;stroke-linecap:round;stroke-linejoin:round;stroke-miterlimit:10;"
          d="
	M42.12,14.159C49.8,22.319,54.6,37.68,54.6,54.239c0,1.2,0,2.16,0,3.36"/>
    <path style="fill:none;stroke:#FF0000;stroke-width:0.72;stroke-linecap:round;stroke-linejoin:round;stroke-miterlimit:10;"
          d="
	M19.08,22.56c11.76,11.521,18.24,26.88,18.24,42.48c0,1.68-0.24,3.119-0.24,4.56"/>
    <path style="fill:none;stroke:#FF0000;stroke-width:0.72;stroke-linecap:round;stroke-linejoin:round;stroke-miterlimit:10;"
          d="
	M60.12,4.56c8.399,12.48,13.68,35.76,13.68,61.2c0,1.68,0,3.36,0,5.04"/>
    <path style="fill:none;stroke:#FF0000;stroke-width:0.72;stroke-linecap:round;stroke-linejoin:round;stroke-miterlimit:10;"
          d="
	M9.24,41.76c6.96,4.56,11.28,13.439,11.28,23.04c0,0.479,0,1.2-0.24,1.68"/>
    <path style="fill:none;stroke:#FF0000;stroke-width:0.72;stroke-linecap:round;stroke-linejoin:round;stroke-miterlimit:10;"
          d="
	M141.24,129.6c-4.561-5.52-7.44-15.84-7.44-26.88c0-0.72,0-1.44,0-2.16"/>
    <path style="fill:none;stroke:#FF0000;stroke-width:0.72;stroke-linecap:round;stroke-linejoin:round;stroke-miterlimit:10;"
          d="
	M158.76,120.72c-2.88-6.72-4.56-14.4-4.56-22.08c0-0.96,0.24-1.92,0.24-2.88"/>
    <path style="fill:none;stroke:#FF0000;stroke-width:0.72;stroke-linecap:round;stroke-linejoin:round;stroke-miterlimit:10;"
          d="
	M116.52,133.439c-1.439-7.68-2.399-17.52-2.399-27.359c0-1.2,0-2.16,0-3.12"/>
    <path style="fill:none;stroke:#FF0000;stroke-width:0.72;stroke-linecap:round;stroke-linejoin:round;stroke-miterlimit:10;"
          d="
	M181.32,107.04c-4.561-3.601-7.2-10.561-7.2-18c0-0.48,0-0.96,0-1.44"/>
    <path style="fill:none;stroke:#FF0000;stroke-width:0.72;stroke-linecap:round;stroke-linejoin:round;stroke-miterlimit:10;"
          d="
	M91.8,134.64c1.92-5.76,3.12-16.8,3.12-28.56c0-0.721,0-1.681,0-2.4"/>
    <path style="fill:none;stroke:#FF0000;stroke-width:0.72;stroke-linecap:round;stroke-linejoin:round;stroke-miterlimit:10;"
          d="
	M39.96,132.239c7.92-6.479,12.96-18.479,12.96-31.439c0-0.96,0-1.68-0.24-2.641"/>
    <path style="fill:none;stroke:#FF0000;stroke-width:0.72;stroke-linecap:round;stroke-linejoin:round;stroke-miterlimit:10;"
          d="
	M18.84,122.399c7.92-7.439,12.48-17.279,12.48-27.84c0-0.96,0-1.92-0.24-2.88"/>
    <path style="fill:none;stroke:#FF0000;stroke-width:0.72;stroke-linecap:round;stroke-linejoin:round;stroke-miterlimit:10;"
          d="
	M64.2,134.399c4.08-6.24,6.72-18,6.72-30.96c0-0.72,0-1.439,0-2.399"/>
    <path style="fill:none;stroke:#FF0000;stroke-width:0.72;stroke-linecap:round;stroke-linejoin:round;stroke-miterlimit:10;"
          d="
	M7.32,103.439c6.96-3.6,11.28-10.56,11.28-18c0-0.479,0-0.96,0-1.439"/>
    <polygon style="fill-rule:evenodd;clip-rule:evenodd;fill:#FFFFFF;" points="226.44,68.159 226.44,70.319 199.8,70.319 199.8,74.88
	226.44,74.88 226.44,77.04 235.08,72.72 "/>
    <polygon
            style="fill:none;stroke:#000000;stroke-width:0.72;stroke-linecap:round;stroke-linejoin:round;stroke-miterlimit:10;"
            points="
	226.44,68.159 226.44,70.319 199.8,70.319 199.8,74.88 226.44,74.88 226.44,77.04 235.08,72.72 "/>
    <line style="fill:none;stroke:#0000FF;stroke-width:0.72;stroke-linecap:round;stroke-linejoin:round;stroke-miterlimit:10;"
          x1="51" y1="76.56" x2="51" y2="77.279"/>
    <polygon style="fill-rule:evenodd;clip-rule:evenodd;fill:#0000FF;" points="48.6,76.8 51.48,84.72 53.64,76.56 "/>
    <line style="fill:none;stroke:#0000FF;stroke-width:0.72;stroke-linecap:round;stroke-linejoin:round;stroke-miterlimit:10;"
          x1="82.68" y1="78" x2="82.68" y2="79.199"/>
    <polygon style="fill-rule:evenodd;clip-rule:evenodd;fill:#0000FF;" points="80.28,78.96 83.64,86.64 85.32,78.479 "/>
    <line style="fill:none;stroke:#0000FF;stroke-width:0.72;stroke-linecap:round;stroke-linejoin:round;stroke-miterlimit:10;"
          x1="50.76" y1="89.279" x2="50.76" y2="89.279"/>
    <polygon style="fill-rule:evenodd;clip-rule:evenodd;fill:#0000FF;" points="49.8,97.68 51,89.52 45.24,95.52 "/>
    <line style="fill:none;stroke:#0000FF;stroke-width:0.72;stroke-linecap:round;stroke-linejoin:round;stroke-miterlimit:10;"
          x1="111.48" y1="85.92" x2="111.48" y2="85.92"/>
    <polygon style="fill-rule:evenodd;clip-rule:evenodd;fill:#0000FF;" points="108.6,78.239 111.48,86.159 113.64,78 "/>
    <line style="fill:none;stroke:#0000FF;stroke-width:0.72;stroke-linecap:round;stroke-linejoin:round;stroke-miterlimit:10;"
          x1="138.36" y1="76.08" x2="138.36" y2="76.56"/>
    <polygon style="fill-rule:evenodd;clip-rule:evenodd;fill:#0000FF;" points="135.96,76.08 138.84,83.76 141,75.84 "/>
    <line style="fill:none;stroke:#0000FF;stroke-width:0.72;stroke-linecap:round;stroke-linejoin:round;stroke-miterlimit:10;"
          x1="165.48" y1="71.279" x2="165.48" y2="72"/>
    <polygon style="fill-rule:evenodd;clip-rule:evenodd;fill:#0000FF;"
             points="163.08,71.76 166.68,79.439 168.12,71.279 "/>
    <line style="fill:none;stroke:#0000FF;stroke-width:0.72;stroke-linecap:round;stroke-linejoin:round;stroke-miterlimit:10;"
          x1="83.16" y1="91.68" x2="83.16" y2="91.68"/>
    <polygon style="fill-rule:evenodd;clip-rule:evenodd;fill:#0000FF;" points="83.4,100.08 83.16,91.92 78.36,98.399 "/>
    <line style="fill:none;stroke:#0000FF;stroke-width:0.72;stroke-linecap:round;stroke-linejoin:round;stroke-miterlimit:10;"
          x1="110.28" y1="92.159" x2="110.28" y2="92.159"/>
    <polygon style="fill-rule:evenodd;clip-rule:evenodd;fill:#0000FF;"
             points="111,100.56 110.52,92.399 105.96,99.359 "/>
    <line style="fill:none;stroke:#0000FF;stroke-width:0.72;stroke-linecap:round;stroke-linejoin:round;stroke-miterlimit:10;"
          x1="138.6" y1="91.199" x2="138.6" y2="91.199"/>
    <polygon style="fill-rule:evenodd;clip-rule:evenodd;fill:#0000FF;" points="140.04,99.6 138.84,91.439 135,98.64 "/>
    <line style="fill:none;stroke:#0000FF;stroke-width:0.72;stroke-linecap:round;stroke-linejoin:round;stroke-miterlimit:10;"
          x1="166.2" y1="85.199" x2="166.2" y2="85.199"/>
    <polygon style="fill-rule:evenodd;clip-rule:evenodd;fill:#0000FF;"
             points="167.88,93.359 166.2,85.199 162.6,92.88 "/>
    <line style="fill:none;stroke:#FF0000;stroke-width:0.72;stroke-linecap:round;stroke-linejoin:round;stroke-miterlimit:10;"
          x1="11.4" y1="44.159" x2="11.4" y2="44.159"/>
    <polygon style="fill-rule:evenodd;clip-rule:evenodd;fill:#FF0000;" points="18.36,48.72 11.64,44.399 14.52,52.08 "/>
    <line style="fill:none;stroke:#FF0000;stroke-width:0.72;stroke-linecap:round;stroke-linejoin:round;stroke-miterlimit:10;"
          x1="64.68" y1="12.72" x2="64.68" y2="12.72"/>
    <polygon style="fill-rule:evenodd;clip-rule:evenodd;fill:#FF0000;" points="69.72,19.439 64.92,12.72 64.92,21.12 "/>
    <line style="fill:none;stroke:#FF0000;stroke-width:0.72;stroke-linecap:round;stroke-linejoin:round;stroke-miterlimit:10;"
          x1="44.76" y1="16.8" x2="44.76" y2="16.8"/>
    <polygon style="fill-rule:evenodd;clip-rule:evenodd;fill:#FF0000;" points="50.52,23.04 44.76,17.04 45.72,25.199 "/>
    <line style="fill:none;stroke:#FF0000;stroke-width:0.72;stroke-linecap:round;stroke-linejoin:round;stroke-miterlimit:10;"
          x1="22.2" y1="25.68" x2="22.2" y2="25.68"/>
    <polygon style="fill-rule:evenodd;clip-rule:evenodd;fill:#FF0000;" points="28.68,30.96 22.2,25.68 24.36,33.84 "/>
    <line style="fill:none;stroke:#FF0000;stroke-width:0.72;stroke-linecap:round;stroke-linejoin:round;stroke-miterlimit:10;"
          x1="91.56" y1="5.76" x2="91.56" y2="5.76"/>
    <polygon style="fill-rule:evenodd;clip-rule:evenodd;fill:#FF0000;" points="95.64,13.199 91.8,6 90.6,14.159 "/>
    <line style="fill:none;stroke:#FF0000;stroke-width:0.72;stroke-linecap:round;stroke-linejoin:round;stroke-miterlimit:10;"
          x1="128.76" y1="7.199" x2="128.76" y2="7.199"/>
    <polygon style="fill-rule:evenodd;clip-rule:evenodd;fill:#FF0000;" points="129.24,15.6 128.76,7.439 124.2,14.159 "/>
    <line style="fill:none;stroke:#FF0000;stroke-width:0.72;stroke-linecap:round;stroke-linejoin:round;stroke-miterlimit:10;"
          x1="155.16" y1="14.399" x2="155.16" y2="14.399"/>
    <polygon style="fill-rule:evenodd;clip-rule:evenodd;fill:#FF0000;" points="154.68,22.8 155.16,14.64 149.88,20.88 "/>
    <line style="fill:none;stroke:#FF0000;stroke-width:0.72;stroke-linecap:round;stroke-linejoin:round;stroke-miterlimit:10;"
          x1="174.36" y1="28.319" x2="174.36" y2="28.319"/>
    <polygon style="fill-rule:evenodd;clip-rule:evenodd;fill:#FF0000;"
             points="172.68,36.479 174.36,28.56 168.36,33.84 "/>
    <line style="fill:none;stroke:#FF0000;stroke-width:0.72;stroke-linecap:round;stroke-linejoin:round;stroke-miterlimit:10;"
          x1="183" y1="46.08" x2="183" y2="46.08"/>
    <polygon style="fill-rule:evenodd;clip-rule:evenodd;fill:#FF0000;" points="179.64,53.76 183,46.319 176.04,50.399 "/>
    <line style="fill:none;stroke:#FF0000;stroke-width:0.72;stroke-linecap:round;stroke-linejoin:round;stroke-miterlimit:10;"
          x1="16.2" y1="94.319" x2="16.2" y2="94.319"/>
    <polygon style="fill-rule:evenodd;clip-rule:evenodd;fill:#FF0000;" points="13.8,102.239 16.44,94.319 9.72,99.359 "/>
    <line style="fill:none;stroke:#FF0000;stroke-width:0.72;stroke-linecap:round;stroke-linejoin:round;stroke-miterlimit:10;"
          x1="93.96" y1="119.76" x2="93.96" y2="119.76"/>
    <polygon style="fill-rule:evenodd;clip-rule:evenodd;fill:#FF0000;"
             points="95.88,127.92 94.2,119.76 90.84,127.439 "/>
    <line style="fill:none;stroke:#FF0000;stroke-width:0.72;stroke-linecap:round;stroke-linejoin:round;stroke-miterlimit:10;"
          x1="23.64" y1="116.88" x2="24.84" y2="115.199"/>
    <polygon style="fill-rule:evenodd;clip-rule:evenodd;fill:#FF0000;"
             points="26.52,117.12 28.44,109.199 22.2,114.72 "/>
    <line style="fill:none;stroke:#FF0000;stroke-width:0.72;stroke-linecap:round;stroke-linejoin:round;stroke-miterlimit:10;"
          x1="115.08" y1="126.479" x2="115.08" y2="125.52"/>
    <polygon style="fill-rule:evenodd;clip-rule:evenodd;fill:#FF0000;"
             points="117.72,126.239 114.84,118.319 112.68,126.479 "/>
    <line style="fill:none;stroke:#FF0000;stroke-width:0.72;stroke-linecap:round;stroke-linejoin:round;stroke-miterlimit:10;"
          x1="50.28" y1="115.199" x2="50.28" y2="115.199"/>
    <polygon style="fill-rule:evenodd;clip-rule:evenodd;fill:#FF0000;" points="49.8,123.6 50.52,115.439 45.24,121.68 "/>
    <line style="fill:none;stroke:#FF0000;stroke-width:0.72;stroke-linecap:round;stroke-linejoin:round;stroke-miterlimit:10;"
          x1="69.96" y1="118.319" x2="69.96" y2="118.319"/>
    <polygon style="fill-rule:evenodd;clip-rule:evenodd;fill:#FF0000;"
             points="71.16,126.72 70.2,118.319 66.12,125.76 "/>
    <line style="fill:none;stroke:#FF0000;stroke-width:0.72;stroke-linecap:round;stroke-linejoin:round;stroke-miterlimit:10;"
          x1="137.16" y1="123.359" x2="137.16" y2="122.88"/>
    <polygon style="fill-rule:evenodd;clip-rule:evenodd;fill:#FF0000;"
             points="139.8,123.12 135.48,115.92 134.76,124.319 "/>
    <line style="fill:none;stroke:#FF0000;stroke-width:0.72;stroke-linecap:round;stroke-linejoin:round;stroke-miterlimit:10;"
          x1="154.68" y1="109.92" x2="154.68" y2="109.92"/>
    <polygon style="fill-rule:evenodd;clip-rule:evenodd;fill:#FF0000;"
             points="159.72,116.64 154.68,110.159 154.92,118.319 "/>
    <line style="fill:none;stroke:#FF0000;stroke-width:0.72;stroke-linecap:round;stroke-linejoin:round;stroke-miterlimit:10;"
          x1="177.96" y1="103.68" x2="177.72" y2="102.479"/>
    <polygon style="fill-rule:evenodd;clip-rule:evenodd;fill:#FF0000;"
             points="180.36,102.239 174.84,96.239 175.56,104.399 "/>
</svg>
