<svg version="1.1" id="Layer_1" xmlns="http://www.w3.org/2000/svg" x="0px" y="0px"
	 width="100%" viewBox="30 120 404 100" enable-background="new 0 0 454 334" xml:space="preserve">
<path opacity="0.000000" stroke="none"
	  d="
M319.000000,335.000000 
	C212.700241,335.000000 106.900475,335.000000 1.050358,335.000000 
	C1.050358,223.735580 1.050358,112.471123 1.050358,1.103333 
	C152.216385,1.103333 303.432861,1.103333 454.824646,1.103333 
	C454.824646,112.333107 454.824646,223.666534 454.824646,335.000000 
	C409.804535,335.000000 364.652252,335.000000 319.000000,335.000000 
M187.710938,304.867065 
	C188.674927,301.880493 190.438263,298.895599 190.444519,295.907013 
	C190.459747,288.598694 189.282700,281.288147 189.293518,273.979523 
	C189.305771,265.702606 193.611664,261.083801 201.739243,259.641754 
	C204.352661,259.178101 207.034332,259.089844 209.687393,258.860321 
	C216.984406,258.228973 224.340683,257.998230 231.568375,256.910431 
	C245.740128,254.777557 254.102402,245.545654 255.019272,231.310333 
	C255.328400,226.510712 255.244537,221.620239 254.660965,216.854446 
	C254.336121,214.201401 254.578674,212.563812 256.788940,210.953491 
	C260.146423,208.507370 261.937012,205.014053 260.528198,200.923813 
	C259.550995,198.086548 260.443176,196.769684 262.590240,195.186127 
	C265.642670,192.934814 266.399475,190.013504 264.308746,186.457199 
	C262.971313,184.182220 262.073151,181.639053 261.074890,179.176849 
	C259.467773,175.212967 260.762268,173.185471 265.136810,173.116959 
	C274.461700,172.970901 283.794952,172.375977 293.107819,172.617844 
	C328.747345,173.543411 364.376465,174.894882 400.018463,175.678467 
	C407.434662,175.841507 414.929871,174.511032 422.300171,173.320908 
	C424.390015,172.983459 427.682678,170.754700 427.725830,169.312546 
	C427.787750,167.244583 425.746857,164.664841 423.918854,163.107437 
	C421.827911,161.325974 419.089508,160.134979 416.450867,159.199600 
	C410.183929,156.978027 403.928070,154.512329 397.458435,153.112335 
	C370.143311,147.201584 342.667664,142.014145 315.418030,135.825638 
	C297.922058,131.852203 280.657715,126.801796 263.414001,121.804741 
	C257.150146,119.989517 256.505371,118.040161 257.576447,111.751740 
	C260.434753,94.969810 257.582428,79.274620 248.591492,64.775131 
	C235.832977,44.199776 217.778137,29.796867 195.336700,21.400791 
	C163.792648,9.599142 132.101654,7.999546 101.695961,24.975729 
	C75.629539,39.529190 60.354504,62.968018 51.028954,90.645813 
	C40.977142,120.479126 41.343201,150.946747 46.494164,181.524551 
	C49.607174,200.004395 54.513199,217.940582 66.102470,233.309052 
	C66.780762,234.208527 66.632401,236.172470 66.194580,237.400742 
	C63.406448,245.222748 60.682838,253.084442 57.454689,260.729004 
	C52.538490,272.371002 47.055733,283.774078 42.159050,295.423859 
	C39.602707,301.505676 42.468891,305.422791 49.932255,305.885101 
	C68.895889,305.891479 87.859573,305.925812 106.823158,305.897095 
	C129.940720,305.862091 153.058197,305.774048 177.041916,305.892914 
	C180.009506,305.766510 182.977097,305.640137 186.536316,305.386017 
	C186.690628,305.256042 186.844955,305.126099 187.710938,304.867065 
z"/>
	<path fill="gray" opacity="1.000000" stroke="none"
		  d="
M185.944702,305.513733 
	C182.977097,305.640137 180.009506,305.766510 176.395828,305.387878 
	C174.332581,304.588654 172.915726,304.039185 171.498230,304.037506 
	C132.036148,303.991119 92.573959,303.983063 53.112034,304.072540 
	C51.743408,304.075623 50.377197,305.144196 49.009857,305.716187 
	C42.468891,305.422791 39.602707,301.505676 42.159050,295.423859 
	C47.055733,283.774078 52.538490,272.371002 57.454689,260.729004 
	C60.682838,253.084442 63.406448,245.222748 66.194580,237.400742 
	C66.632401,236.172470 66.780762,234.208527 66.102470,233.309052 
	C54.513199,217.940582 49.607174,200.004395 46.494164,181.524551 
	C41.343201,150.946747 40.977142,120.479126 51.028954,90.645813 
	C60.354504,62.968018 75.629539,39.529190 101.695961,24.975729 
	C132.101654,7.999546 163.792648,9.599142 195.336700,21.400791 
	C217.778137,29.796867 235.832977,44.199776 248.591492,64.775131 
	C257.582428,79.274620 260.434753,94.969810 257.576447,111.751740 
	C256.505371,118.040161 257.150146,119.989517 263.414001,121.804741 
	C280.657715,126.801796 297.922058,131.852203 315.418030,135.825638 
	C342.667664,142.014145 370.143311,147.201584 397.458435,153.112335 
	C403.928070,154.512329 410.183929,156.978027 416.450867,159.199600 
	C419.089508,160.134979 421.827911,161.325974 423.918854,163.107437 
	C425.746857,164.664841 427.787750,167.244583 427.725830,169.312546 
	C427.682678,170.754700 424.390015,172.983459 422.300171,173.320908 
	C414.929871,174.511032 407.434662,175.841507 400.018463,175.678467 
	C364.376465,174.894882 328.747345,173.543411 293.107819,172.617844 
	C283.794952,172.375977 274.461700,172.970901 265.136810,173.116959 
	C260.762268,173.185471 259.467773,175.212967 261.074890,179.176849 
	C262.073151,181.639053 262.971313,184.182220 264.308746,186.457199 
	C266.399475,190.013504 265.642670,192.934814 262.590240,195.186127 
	C260.443176,196.769684 259.550995,198.086548 260.528198,200.923813 
	C261.937012,205.014053 260.146423,208.507370 256.788940,210.953491 
	C254.578674,212.563812 254.336121,214.201401 254.660965,216.854446 
	C255.244537,221.620239 255.328400,226.510712 255.019272,231.310333 
	C254.102402,245.545654 245.740128,254.777557 231.568375,256.910431 
	C224.340683,257.998230 216.984406,258.228973 209.687393,258.860321 
	C207.034332,259.089844 204.352661,259.178101 201.739243,259.641754 
	C193.611664,261.083801 189.305771,265.702606 189.293518,273.979523 
	C189.282700,281.288147 190.459747,288.598694 190.444519,295.907013 
	C190.438263,298.895599 188.674927,301.880493 187.206635,304.762451 
	C186.449783,304.943115 186.197235,305.228424 185.944702,305.513733 
z"/>
	<path fill="#2C2C2C" opacity="1.000000" stroke="none"
		  d="
M49.471062,305.800659 
	C50.377197,305.144196 51.743408,304.075623 53.112034,304.072540 
	C92.573959,303.983063 132.036148,303.991119 171.498230,304.037506 
	C172.915726,304.039185 174.332581,304.588654 175.962738,305.295868 
	C153.058197,305.774048 129.940720,305.862091 106.823158,305.897095 
	C87.859573,305.925812 68.895889,305.891479 49.471062,305.800659 
z"/>
	<path fill="#2C2C2C" opacity="1.000000" stroke="none"
		  d="
M186.240509,305.449890 
	C186.197235,305.228424 186.449783,304.943115 186.850800,304.826965 
	C186.844955,305.126099 186.690628,305.256042 186.240509,305.449890 
z"/>
</svg>
